<svg xmlns="http://www.w3.org/2000/svg" viewBox="0 0 176 104" role="img" aria-labelledby="title">
  <title>Stonr splash mark</title>
  <defs>
    <clipPath id="stoneClip">
      <ellipse cx="88" cy="49" rx="60" ry="31"/>
    </clipPath>
  </defs>

  <ellipse cx="88" cy="77" rx="40" ry="7" fill="#0d140d" opacity="0.16"/>

  <g clip-path="url(#stoneClip)">
    <ellipse cx="88" cy="49" rx="60" ry="31" fill="#ebe1d4"/>
    <ellipse cx="88" cy="59" rx="52" ry="16" fill="#c7b7a1" opacity="0.42"/>
    <ellipse cx="72" cy="37" rx="20" ry="10" fill="#ffffff" opacity="0.34"/>

    <g fill="#bca892" opacity="0.72">
      <circle cx="63" cy="44" r="1.1"/>
      <circle cx="74" cy="38" r="0.9"/>
      <circle cx="86" cy="42" r="1.0"/>
      <circle cx="97" cy="36" r="0.8"/>
      <circle cx="108" cy="45" r="1.0"/>
      <circle cx="117" cy="50" r="0.9"/>
      <circle cx="68" cy="55" r="1.0"/>
      <circle cx="80" cy="58" r="0.8"/>
      <circle cx="94" cy="55" r="0.9"/>
      <circle cx="105" cy="60" r="1.1"/>
      <circle cx="119" cy="57" r="0.9"/>
    </g>

    <g fill="#d6c9b9" opacity="0.58">
      <circle cx="58" cy="51" r="0.7"/>
      <circle cx="71" cy="48" r="0.6"/>
      <circle cx="90" cy="35" r="0.7"/>
      <circle cx="101" cy="41" r="0.6"/>
      <circle cx="112" cy="54" r="0.7"/>
      <circle cx="83" cy="51" r="0.6"/>
      <circle cx="98" cy="50" r="0.6"/>
    </g>
  </g>

  <ellipse cx="88" cy="49" rx="59.4" ry="30.4" fill="none" stroke="#c8bcab" stroke-width="1.1"/>
</svg>
